<svg xmlns="http://www.w3.org/2000/svg" viewBox="0 0 233.19 153.5" width="233.19" height="153.5" data-prefix="ie32ncec1"><g data-name="Слой 2"><g data-name="‘лой_1"><path d="M102.57 51.31a50.34 50.34 0 0 1-.43 6.4 46.94 46.94 0 0 1-2.64 11.08v.11l-5.21 10.33-37.06 74.27-21.68-10.75 20.17-40.4a41 41 0 0 1-4.46.22 51.29 51.29 0 1 1 51.31-51.26zM233.19 51.31a50.34 50.34 0 0 1-.43 6.4 46.92 46.92 0 0 1-2.63 11.08l-.06.11-5.16 10.33-37.06 74.27-21.67-10.75 20.17-40.4a41.17 41.17 0 0 1-4.47.22 51.29 51.29 0 1 1 51.31-51.26z"></path></g></g></svg>