<svg xmlns="http://www.w3.org/2000/svg" viewBox="0 0 24 23.99" width="24" height="23.99" data-prefix="ize446a1e">
	<g data-name="Слой 2">
		<g data-name="Слой 6">
			<path
				d="M6.08 16.65a1.28 1.28 0 0 1-1.28-1.28V13a1.28 1.28 0 1 1 2.56 0v2.4a1.28 1.28 0 0 1-1.28 1.25zm0-4.24a.55.55 0 0 0-.55.56v2.4a.55.55 0 0 0 .55.55.55.55 0 0 0 .55-.55V13a.56.56 0 0 0-.55-.59zM17.93 16.65a1.29 1.29 0 0 1-1.28-1.28V13a1.29 1.29 0 1 1 2.57 0v2.4a1.29 1.29 0 0 1-1.29 1.25zm0-4.24a.56.56 0 0 0-.55.56v2.4a.56.56 0 0 0 1.11 0V13a.56.56 0 0 0-.56-.59z"
				class="path-ip3gkxotp" fill="#FFFFFF"></path>
			<path
				d="M18 12.39a.37.37 0 0 1-.37-.37A5.48 5.48 0 0 0 12 6.55 5.49 5.49 0 0 0 6.39 12a.37.37 0 0 1-.36.37.38.38 0 0 1-.37-.37A6.21 6.21 0 0 1 12 5.82 6.21 6.21 0 0 1 18.35 12a.37.37 0 0 1-.35.39zM17.44 17.3h-3.32a.37.37 0 0 1-.36-.37.36.36 0 0 1 .36-.36h3.32a.25.25 0 0 0 .2-.23.37.37 0 0 1 .73 0 1 1 0 0 1-.93.96z"
				class="path-i0wggqo5n" fill="#FFFFFF"></path>
			<path
				d="M13.17 18.18h-1.76a1.25 1.25 0 0 1 0-2.5h1.76a1.25 1.25 0 1 1 0 2.5zm-1.76-1.77a.52.52 0 0 0-.52.52.52.52 0 0 0 .52.52h1.76a.52.52 0 0 0 .52-.52.52.52 0 0 0-.52-.52zM.4 12.36A.37.37 0 0 1 0 12a12 12 0 0 1 22.49-5.89.37.37 0 0 1-.14.5.36.36 0 0 1-.5-.14A11.27 11.27 0 0 0 .76 12a.36.36 0 0 1-.36.36z"
				class="path-ifuuhdk6x" fill="#FFFFFF"></path>
			<path d="M23.2 8.73a13 13 0 0 0-3.41-2.6L22 6l1.61-1.52a13.15 13.15 0 0 0-.41 4.25z" class="path-impvqady8"
				fill="#FFFFFF"></path>
			<path
				d="M23.41 9.21l-.34-.36a13.49 13.49 0 0 0-3.35-2.56L19.08 6l2.85-.18 2.07-2-.21.67a13.38 13.38 0 0 0-.41 4.2zm-3-2.94a14.18 14.18 0 0 1 2.55 2A14.39 14.39 0 0 1 23.27 5l-1.19 1.16zM12 24a12 12 0 0 1-10.48-6.15.35.35 0 0 1 .14-.49.37.37 0 0 1 .5.14 11.27 11.27 0 0 0 21.1-5.5.37.37 0 1 1 .74 0 12 12 0 0 1-12 12z"
				class="path-iw4s2jf00" fill="#FFFFFF"></path>
			<path d="M.82 15.24a13.43 13.43 0 0 0 3.39 2.61L2 18 .39 19.5a13.12 13.12 0 0 0 .43-4.26z" class="path-i3kf76vac"
				fill="#FFFFFF"></path>
			<path
				d="M0 20.11l.21-.67a13.11 13.11 0 0 0 .42-4.2v-.49l.34.36a13.05 13.05 0 0 0 3.34 2.57l.64.31-2.85.17zm1-4.41a15 15 0 0 1-.29 3.22l1.21-1.12 1.64-.1a14.2 14.2 0 0 1-2.56-2z"
				class="path-ihy6jfzib" fill="#FFFFFF"></path>
		</g>
	</g>
</svg>