<svg xmlns="http://www.w3.org/2000/svg" viewBox="0 0 116.44 96.5" width="116.44" height="96.5" data-prefix="iwm8y4hbi"><g data-name="Слой 2"><path data-name="Telegram" d="M8 41.54q46.89-20.43 62.53-26.93C100.31 2.22 106.5.07 110.53 0a7.06 7.06 0 0 1 4.16 1.25 4.52 4.52 0 0 1 1.52 2.9 18.59 18.59 0 0 1 .18 4.22c-1.61 17-8.59 58.1-12.15 77.09-1.5 8-4.46 10.73-7.32 11-6.23.58-11-4.11-17-8.07C70.49 82.2 65.16 78.35 56 72.31c-10.58-7-3.72-10.81 2.31-17.08 1.58-1.64 29-26.59 29.55-28.85a2.24 2.24 0 0 0-.5-1.9 2.44 2.44 0 0 0-2.22-.21q-1.42.32-45.23 29.89-6.42 4.41-11.63 4.29c-3.83-.08-11.19-2.16-16.66-3.94C4.9 52.33-.44 51.17 0 47.47q.39-2.89 8-5.93z" fill-rule="evenodd" class="path-ibmnkyuzg"></path></g></svg>