<svg fill="white" xmlns="http://www.w3.org/2000/svg" version="1.1" xmlns:xlink="http://www.w3.org/1999/xlink" width="512" height="512" x="0" y="0" viewBox="0 0 511 512" style="enable-background:new 0 0 512 512" xml:space="preserve" class=""><g><path d="M435.188 74.281C387.284 26.383 323.594 0 255.851 0 202.57 0 151.574 16.344 108.379 47.27c-4.492 3.214-5.527 9.46-2.313 13.953 3.22 4.492 9.465 5.523 13.954 2.308C159.8 35.055 206.77 20 255.852 20c128.816 0 233.617 104.8 233.617 233.621 0 128.816-104.801 233.617-233.617 233.617-39.243 0-78.051-9.918-112.23-28.683a10.026 10.026 0 0 0-7.423-.887L24.88 487.754l30.351-108.32a9.986 9.986 0 0 0-1.003-7.758C33.293 336.004 22.23 295.184 22.23 253.62c0-49.086 15.055-96.055 43.532-135.832 3.215-4.488 2.18-10.734-2.309-13.95-4.492-3.214-10.738-2.183-13.953 2.31-30.926 43.19-47.27 94.187-47.27 147.472 0 43.684 11.262 86.617 32.61 124.461L.87 499.301a10.006 10.006 0 0 0 2.524 9.738A10.02 10.02 0 0 0 10.5 512c.871 0 1.746-.113 2.61-.348l124.464-33.636c36.238 19.129 77.043 29.222 118.274 29.222 67.746 0 131.437-26.379 179.336-74.285 47.902-47.898 74.285-111.59 74.285-179.336 0-67.742-26.38-131.43-74.281-179.336zm0 0" fill="#f72585" opacity="1" data-original="#f72585" class=""></path><path d="M419.77 374.84c4.593 3.066 10.804 1.828 13.87-2.766 23.438-35.117 35.829-76.078 35.829-118.457 0-57.062-22.219-110.71-62.563-151.054S312.918 40 255.852 40c-57.067 0-110.715 22.219-151.059 62.563S42.23 196.555 42.23 253.62c0 38.008 10.114 75.328 29.247 107.93l6.453 11-19.551 69.773a9.992 9.992 0 0 0 2.523 9.735 10.007 10.007 0 0 0 9.715 2.617l72.031-19.469 10.594 5.816c31.242 17.153 66.723 26.215 102.606 26.215 42.382 0 83.343-12.39 118.457-35.832 4.593-3.062 5.832-9.273 2.765-13.867-3.066-4.594-9.273-5.832-13.867-2.766-31.816 21.239-68.937 32.465-107.355 32.465-32.528 0-64.68-8.21-92.98-23.746l-14.126-7.758a10.022 10.022 0 0 0-7.422-.886l-58.937 15.93 15.953-56.926c.73-2.618.371-5.418-1.004-7.758l-8.61-14.668C71.392 321.89 62.23 288.07 62.23 253.617 62.23 146.855 149.09 60 255.852 60c106.761 0 193.617 86.855 193.617 193.621 0 38.41-11.227 75.531-32.465 107.352-3.066 4.593-1.828 10.8 2.766 13.867zm0 0" fill="#f72585" opacity="1" data-original="#f72585" class=""></path><path d="m219.305 222.902.66-.77c8.957-10.054 6.695-21.862 3.219-29.995-5.137-12.012-18.575-42.715-19.848-45.621-1.984-5.016-8.606-12.961-21.922-13.239-10.383-.21-13.797.082-14.594.18-.082.008-.164.02-.242.031-1.531.223-37.547 6.051-43.766 60.032-2.859 24.816 8.633 54.378 34.157 87.875 28.258 37.082 54.234 59.164 92.648 78.75 19.13 9.753 47.07 21.171 73.082 21.171.844 0 1.688-.011 2.524-.039 29.214-.851 44.816-12.992 52.757-23.027 8.43-10.652 10.192-21.148 10.446-22.969.168-1.156.574-4.804.832-14.308.36-13.317-7.266-20.309-12.18-22.532-2.777-1.378-31.41-15.574-43.148-21.265-7.926-3.848-19.578-6.043-30.067 5.336-.054.058-.105.117-.156.168-1.418 1.238-2.82 3.086-7.082 8.789-2.625 3.511-7.863 10.52-10.09 12.86-4.703.331-20.43-6.595-42.723-23.856-14.05-10.883-29.054-27.825-37.355-42.176a1.95 1.95 0 0 1-.11-.762c3.442-3.539 9.044-10.043 12.958-14.633zm12.261 73.383c6.664 5.16 19.73 14.774 32.364 21.184 5.972 3.027 24.148 12.25 35.355 2.332 3.094-2.739 7.488-8.508 13.356-16.36 1.691-2.261 3.77-5.039 4.574-6 .523-.476.957-.945 1.351-1.375 1.801-1.953 2.622-2.843 6.633-.898 12.047 5.844 42.102 20.75 43.18 21.281.371.371.95 1.578.883 3.98-.223 8.29-.547 11.286-.614 11.848-.043.207-.023.082-.046.309-.118.68-1.375 7.383-6.887 13.965-7.774 9.289-20.246 14.246-37.074 14.734-22.5.668-48.27-9.945-65.942-18.957-35.953-18.336-59.215-38.137-85.828-73.058-21.969-28.829-32.41-54.235-30.195-73.465 4.172-36.207 24.015-41.895 26.676-42.496.937-.059 4.109-.192 11.648-.036 2.402.051 3.578.688 3.934 1.075.496 1.132 14.593 33.336 19.855 45.648 2.629 6.152 1.016 7.965.238 8.836-.14.156-.261.297-.367.414l-.574.676c-5.777 6.77-9.844 11.375-12.086 13.676-7.383 7.586-6.684 18.086-2.902 24.632 9.617 16.665 26.289 35.524 42.468 48.055zM83.586 91.352c2.402 0 4.812-.86 6.727-2.602 4.085-3.715 4.39-10.04.675-14.125a10.004 10.004 0 0 0-14.129-.672l-.004.004c-4.085 3.715-4.382 10.035-.668 14.125a9.972 9.972 0 0 0 7.399 3.27zM392.434 390.871l-.004.008c-3.715 4.086-3.41 10.406.675 14.121a9.952 9.952 0 0 0 6.723 2.602 9.974 9.974 0 0 0 7.402-3.278c3.72-4.086 3.415-10.41-.671-14.125s-10.41-3.414-14.125.672zm0 0" fill="#f72585" opacity="1" data-original="#f72585" class=""></path></g></svg>